<mxfile host="app.diagrams.net" agent="Mozilla/5.0 (Windows NT 10.0; Win64; x64) AppleWebKit/537.36 (KHTML, like Gecko) Chrome/134.0.0.0 Safari/537.36 Edg/134.0.0.0" version="26.1.0">
  <diagram name="第 1 页" id="uSeLu-7NwSD2mq3TuJt0">
    <mxGraphModel dx="878" dy="589" grid="1" gridSize="10" guides="1" tooltips="1" connect="1" arrows="1" fold="1" page="1" pageScale="1" pageWidth="827" pageHeight="1169" math="0" shadow="0">
      <root>
        <mxCell id="0" />
        <mxCell id="1" parent="0" />
        <mxCell id="e1haQ970VzW10dpaDO0G-1" value="&lt;font style=&quot;font-size: 15px; color: light-dark(rgb(0, 0, 0), rgb(237, 237, 237));&quot;&gt;数据收集&lt;/font&gt;" style="rounded=1;whiteSpace=wrap;html=1;fillColor=light-dark(#66B2FF,#EDEDED);" vertex="1" parent="1">
          <mxGeometry x="20" y="20" width="90" height="50" as="geometry" />
        </mxCell>
        <mxCell id="e1haQ970VzW10dpaDO0G-2" value="&lt;font style=&quot;font-size: 15px;&quot;&gt;降水特征分析&lt;/font&gt;&lt;div&gt;&lt;font style=&quot;font-size: 15px;&quot;&gt;（&lt;/font&gt;&lt;font style=&quot;font-size: 12px;&quot;&gt;EOF分解、REOF分解、趋势系数、区域降水指数、谐波分析、小波分析等&lt;/font&gt;&lt;font style=&quot;font-size: 15px;&quot;&gt;）&lt;/font&gt;&lt;/div&gt;" style="rounded=1;whiteSpace=wrap;html=1;fillColor=light-dark(#FFCCCC,var(--ge-dark-color, #121212));" vertex="1" parent="1">
          <mxGeometry x="130" y="130" width="230" height="60" as="geometry" />
        </mxCell>
        <mxCell id="e1haQ970VzW10dpaDO0G-3" value="&lt;font style=&quot;font-size: 15px;&quot;&gt;大气热源分析&lt;/font&gt;&lt;div&gt;&lt;font style=&quot;font-size: 15px;&quot;&gt;（&lt;/font&gt;倒算法、时空变化研究&lt;font style=&quot;font-size: 15px;&quot;&gt;）&lt;/font&gt;&lt;/div&gt;" style="rounded=1;whiteSpace=wrap;html=1;fillColor=light-dark(#FFCCCC,var(--ge-dark-color, #121212));" vertex="1" parent="1">
          <mxGeometry x="400" y="130" width="220" height="60" as="geometry" />
        </mxCell>
        <mxCell id="e1haQ970VzW10dpaDO0G-4" value="&lt;font style=&quot;font-size: 15px;&quot;&gt;大气热源与降水之间相关性&lt;/font&gt;&lt;div&gt;&lt;font style=&quot;font-size: 12px;&quot;&gt;（合成分析、相关分析、SVD分解、Mont-Carlo显著性检验）&lt;/font&gt;&lt;/div&gt;" style="rounded=1;whiteSpace=wrap;html=1;fillColor=light-dark(#FFCCCC,var(--ge-dark-color, #121212));" vertex="1" parent="1">
          <mxGeometry x="240" y="240" width="280" height="60" as="geometry" />
        </mxCell>
        <mxCell id="e1haQ970VzW10dpaDO0G-20" value="" style="edgeStyle=orthogonalEdgeStyle;rounded=0;orthogonalLoop=1;jettySize=auto;html=1;" edge="1" parent="1" source="e1haQ970VzW10dpaDO0G-5" target="e1haQ970VzW10dpaDO0G-6">
          <mxGeometry relative="1" as="geometry" />
        </mxCell>
        <mxCell id="e1haQ970VzW10dpaDO0G-5" value="&lt;font style=&quot;font-size: 15px;&quot;&gt;CWRF区域气候模式&lt;/font&gt;" style="rounded=1;whiteSpace=wrap;html=1;fillColor=light-dark(#CCFF99,var(--ge-dark-color, #121212));" vertex="1" parent="1">
          <mxGeometry x="310" y="330" width="140" height="50" as="geometry" />
        </mxCell>
        <mxCell id="e1haQ970VzW10dpaDO0G-6" value="&lt;font style=&quot;font-size: 15px;&quot;&gt;青藏高原大气源与雨季降水变化影响机制&lt;/font&gt;" style="rounded=1;whiteSpace=wrap;html=1;fillColor=light-dark(#FFFF99,var(--ge-dark-color, #121212));" vertex="1" parent="1">
          <mxGeometry x="270" y="420" width="220" height="60" as="geometry" />
        </mxCell>
        <mxCell id="e1haQ970VzW10dpaDO0G-7" value="" style="endArrow=none;html=1;rounded=0;" edge="1" parent="1">
          <mxGeometry width="50" height="50" relative="1" as="geometry">
            <mxPoint x="240" y="210" as="sourcePoint" />
            <mxPoint x="240" y="190" as="targetPoint" />
            <Array as="points" />
          </mxGeometry>
        </mxCell>
        <mxCell id="e1haQ970VzW10dpaDO0G-8" value="" style="endArrow=none;html=1;rounded=0;" edge="1" parent="1">
          <mxGeometry width="50" height="50" relative="1" as="geometry">
            <mxPoint x="240" y="110" as="sourcePoint" />
            <mxPoint x="520" y="110" as="targetPoint" />
          </mxGeometry>
        </mxCell>
        <mxCell id="e1haQ970VzW10dpaDO0G-9" value="" style="endArrow=classic;html=1;rounded=0;" edge="1" parent="1">
          <mxGeometry width="50" height="50" relative="1" as="geometry">
            <mxPoint x="240" y="110" as="sourcePoint" />
            <mxPoint x="240" y="130" as="targetPoint" />
          </mxGeometry>
        </mxCell>
        <mxCell id="e1haQ970VzW10dpaDO0G-10" value="" style="endArrow=classic;html=1;rounded=0;" edge="1" parent="1">
          <mxGeometry width="50" height="50" relative="1" as="geometry">
            <mxPoint x="520" y="110" as="sourcePoint" />
            <mxPoint x="520" y="130" as="targetPoint" />
          </mxGeometry>
        </mxCell>
        <mxCell id="e1haQ970VzW10dpaDO0G-13" value="" style="endArrow=none;html=1;rounded=0;" edge="1" parent="1">
          <mxGeometry width="50" height="50" relative="1" as="geometry">
            <mxPoint x="520" y="210" as="sourcePoint" />
            <mxPoint x="240" y="210" as="targetPoint" />
            <Array as="points">
              <mxPoint x="390" y="210" />
            </Array>
          </mxGeometry>
        </mxCell>
        <mxCell id="e1haQ970VzW10dpaDO0G-15" value="" style="endArrow=classic;html=1;rounded=0;" edge="1" parent="1">
          <mxGeometry width="50" height="50" relative="1" as="geometry">
            <mxPoint x="379.41" y="210" as="sourcePoint" />
            <mxPoint x="380" y="240" as="targetPoint" />
          </mxGeometry>
        </mxCell>
        <mxCell id="e1haQ970VzW10dpaDO0G-22" value="&lt;span style=&quot;font-size: 15px;&quot;&gt;逐日降水资料&lt;/span&gt;" style="rounded=0;whiteSpace=wrap;html=1;fillColor=light-dark(#66B2FF,var(--ge-dark-color, #121212));" vertex="1" parent="1">
          <mxGeometry x="260" y="20" width="100" height="50" as="geometry" />
        </mxCell>
        <mxCell id="e1haQ970VzW10dpaDO0G-23" value="&lt;span style=&quot;font-size: 15px;&quot;&gt;NCAR/NCEP&lt;/span&gt;&lt;span style=&quot;font-size: 15px;&quot;&gt;再分析资料&lt;/span&gt;" style="rounded=0;whiteSpace=wrap;html=1;fillColor=light-dark(#66B2FF,var(--ge-dark-color, #121212));" vertex="1" parent="1">
          <mxGeometry x="400" y="20" width="100" height="50" as="geometry" />
        </mxCell>
        <mxCell id="e1haQ970VzW10dpaDO0G-24" value="" style="endArrow=none;html=1;rounded=0;" edge="1" parent="1">
          <mxGeometry width="50" height="50" relative="1" as="geometry">
            <mxPoint x="310" y="90" as="sourcePoint" />
            <mxPoint x="450" y="90" as="targetPoint" />
          </mxGeometry>
        </mxCell>
        <mxCell id="e1haQ970VzW10dpaDO0G-25" value="" style="endArrow=none;html=1;rounded=0;" edge="1" parent="1">
          <mxGeometry width="50" height="50" relative="1" as="geometry">
            <mxPoint x="309" y="90" as="sourcePoint" />
            <mxPoint x="309.41" y="70" as="targetPoint" />
            <Array as="points" />
          </mxGeometry>
        </mxCell>
        <mxCell id="e1haQ970VzW10dpaDO0G-26" value="" style="endArrow=none;html=1;rounded=0;" edge="1" parent="1">
          <mxGeometry width="50" height="50" relative="1" as="geometry">
            <mxPoint x="449" y="90" as="sourcePoint" />
            <mxPoint x="449.40999999999997" y="70" as="targetPoint" />
            <Array as="points" />
          </mxGeometry>
        </mxCell>
        <mxCell id="e1haQ970VzW10dpaDO0G-27" value="" style="endArrow=classic;html=1;rounded=0;" edge="1" parent="1">
          <mxGeometry width="50" height="50" relative="1" as="geometry">
            <mxPoint x="379.41" y="300" as="sourcePoint" />
            <mxPoint x="379" y="330" as="targetPoint" />
          </mxGeometry>
        </mxCell>
        <mxCell id="e1haQ970VzW10dpaDO0G-28" value="" style="endArrow=classic;html=1;rounded=0;" edge="1" parent="1">
          <mxGeometry width="50" height="50" relative="1" as="geometry">
            <mxPoint x="379.41" y="90" as="sourcePoint" />
            <mxPoint x="379" y="110" as="targetPoint" />
          </mxGeometry>
        </mxCell>
        <mxCell id="e1haQ970VzW10dpaDO0G-29" value="&lt;font style=&quot;font-size: 15px;&quot;&gt;数据分析&lt;/font&gt;" style="rounded=1;whiteSpace=wrap;html=1;fillColor=light-dark(#FFCCCC,var(--ge-dark-color, #121212));" vertex="1" parent="1">
          <mxGeometry x="20" y="210" width="90" height="60" as="geometry" />
        </mxCell>
        <mxCell id="e1haQ970VzW10dpaDO0G-32" value="" style="endArrow=none;html=1;rounded=0;" edge="1" parent="1">
          <mxGeometry width="50" height="50" relative="1" as="geometry">
            <mxPoint x="520" y="210" as="sourcePoint" />
            <mxPoint x="520" y="190" as="targetPoint" />
          </mxGeometry>
        </mxCell>
        <mxCell id="e1haQ970VzW10dpaDO0G-33" value="&lt;font style=&quot;font-size: 15px;&quot;&gt;数值试验&lt;/font&gt;" style="rounded=1;whiteSpace=wrap;html=1;fillColor=light-dark(#CCFF99,var(--ge-dark-color, #121212));" vertex="1" parent="1">
          <mxGeometry x="20" y="320" width="90" height="60" as="geometry" />
        </mxCell>
        <mxCell id="e1haQ970VzW10dpaDO0G-34" value="&lt;font style=&quot;font-size: 15px;&quot;&gt;研究总结&lt;/font&gt;" style="rounded=1;whiteSpace=wrap;html=1;fillColor=light-dark(#FFFF99,var(--ge-dark-color, #121212));" vertex="1" parent="1">
          <mxGeometry x="20" y="420" width="90" height="60" as="geometry" />
        </mxCell>
      </root>
    </mxGraphModel>
  </diagram>
</mxfile>
